<svg width="24" height="24" viewBox="0 0 24 24" fill="none" xmlns="http://www.w3.org/2000/svg">
<path d="M22.125 10.5002C22.1235 9.20776 21.6094 7.96865 20.6955 7.05473C19.7816 6.14081 18.5425 5.62672 17.25 5.62523C17.0062 5.62577 16.7627 5.64426 16.5216 5.68054C16.1582 4.77889 15.5335 4.00647 14.7278 3.46252C13.9221 2.91857 12.9721 2.62793 12 2.62793C11.0279 2.62793 10.0779 2.91857 9.27224 3.46252C8.46653 4.00647 7.84185 4.77889 7.47844 5.68054C7.23732 5.64426 6.99385 5.62577 6.75001 5.62523C5.62303 5.62523 4.53085 6.01569 3.65931 6.73019C2.78777 7.44468 2.1907 8.43907 1.96968 9.54416C1.74866 10.6493 1.91735 11.7968 2.44704 12.7915C2.97674 13.7863 3.83472 14.5668 4.87501 15.0002V19.5002C4.87501 19.7986 4.99353 20.0847 5.20451 20.2957C5.41549 20.5067 5.70164 20.6252 6.00001 20.6252H18C18.2984 20.6252 18.5845 20.5067 18.7955 20.2957C19.0065 20.0847 19.125 19.7986 19.125 19.5002V15.0002C20.0129 14.6293 20.7714 14.0043 21.3052 13.2037C21.8389 12.403 22.1241 11.4625 22.125 10.5002ZM18.375 19.5002C18.375 19.5997 18.3355 19.6951 18.2652 19.7654C18.1948 19.8357 18.0995 19.8752 18 19.8752H6.00001C5.90055 19.8752 5.80517 19.8357 5.73484 19.7654C5.66452 19.6951 5.62501 19.5997 5.62501 19.5002V15.243C5.99362 15.3306 6.37115 15.3749 6.75001 15.3752H17.25C17.6289 15.3749 18.0064 15.3306 18.375 15.243V19.5002ZM17.25 14.6252H15.48L16.1138 12.094C16.136 11.9982 16.1197 11.8975 16.0683 11.8136C16.017 11.7297 15.9348 11.6693 15.8394 11.6455C15.744 11.6216 15.643 11.6362 15.5583 11.6861C15.4735 11.7359 15.4117 11.8171 15.3863 11.9121L14.7075 14.6309H12.375V12.0002C12.375 11.9008 12.3355 11.8054 12.2652 11.7351C12.1948 11.6647 12.0995 11.6252 12 11.6252C11.9006 11.6252 11.8052 11.6647 11.7348 11.7351C11.6645 11.8054 11.625 11.9008 11.625 12.0002V14.6252H9.29251L8.61376 11.9065C8.60145 11.8587 8.57985 11.8138 8.55019 11.7744C8.52054 11.735 8.48341 11.7018 8.44093 11.6767C8.39844 11.6517 8.35144 11.6352 8.3026 11.6283C8.25375 11.6214 8.20403 11.6242 8.15626 11.6365C8.10849 11.6488 8.06361 11.6704 8.02419 11.7C7.98477 11.7297 7.95158 11.7668 7.92651 11.8093C7.90143 11.8518 7.88498 11.8988 7.87807 11.9476C7.87116 11.9965 7.87395 12.0462 7.88626 12.094L8.52001 14.6252H6.75001C5.65599 14.6252 4.60678 14.1906 3.83319 13.417C3.0596 12.6435 2.62501 11.5942 2.62501 10.5002C2.62501 9.40621 3.0596 8.357 3.83319 7.58341C4.60678 6.80983 5.65599 6.37523 6.75001 6.37523C6.91735 6.37567 7.08451 6.386 7.25063 6.40617C7.16731 6.76489 7.12517 7.13195 7.12501 7.50023C7.12501 7.59969 7.16452 7.69507 7.23484 7.76539C7.30517 7.83572 7.40055 7.87523 7.50001 7.87523C7.59946 7.87523 7.69485 7.83572 7.76517 7.76539C7.8355 7.69507 7.87501 7.59969 7.87501 7.50023C7.87501 6.40621 8.3096 5.357 9.08319 4.58341C9.85678 3.80983 10.906 3.37523 12 3.37523C13.094 3.37523 14.1432 3.80983 14.9168 4.58341C15.6904 5.357 16.125 6.40621 16.125 7.50023C16.125 7.59969 16.1645 7.69507 16.2348 7.76539C16.3052 7.83572 16.4006 7.87523 16.5 7.87523C16.5995 7.87523 16.6948 7.83572 16.7652 7.76539C16.8355 7.69507 16.875 7.59969 16.875 7.50023C16.8748 7.13195 16.8327 6.76489 16.7494 6.40617C16.9155 6.386 17.0827 6.37567 17.25 6.37523C18.344 6.37523 19.3932 6.80983 20.1668 7.58341C20.9404 8.357 21.375 9.40621 21.375 10.5002C21.375 11.5942 20.9404 12.6435 20.1668 13.417C19.3932 14.1906 18.344 14.6252 17.25 14.6252Z" fill="white"/>
</svg>
