<svg width="24" height="24" viewBox="0 0 24 24" fill="none" xmlns="http://www.w3.org/2000/svg">
<path d="M12 6.375C12.5192 6.375 13.0267 6.22105 13.4584 5.93261C13.8901 5.64417 14.2265 5.2342 14.4252 4.75455C14.6239 4.27489 14.6759 3.74709 14.5746 3.23789C14.4733 2.72869 14.2233 2.26096 13.8562 1.89385C13.489 1.52673 13.0213 1.27673 12.5121 1.17544C12.0029 1.07415 11.4751 1.12614 10.9955 1.32482C10.5158 1.5235 10.1058 1.85995 9.8174 2.29163C9.52896 2.72331 9.375 3.23083 9.375 3.75C9.375 4.44619 9.65157 5.11387 10.1438 5.60616C10.6361 6.09844 11.3038 6.375 12 6.375ZM12 1.875C12.3708 1.875 12.7334 1.98497 13.0417 2.191C13.35 2.39702 13.5904 2.68986 13.7323 3.03247C13.8742 3.37508 13.9113 3.75208 13.839 4.1158C13.7666 4.47951 13.5881 4.8136 13.3258 5.07583C13.0636 5.33805 12.7295 5.51663 12.3658 5.58897C12.0021 5.66132 11.6251 5.62419 11.2825 5.48228C10.9399 5.34036 10.647 5.10004 10.441 4.7917C10.235 4.48335 10.125 4.12084 10.125 3.75C10.125 3.25272 10.3225 2.77581 10.6742 2.42418C11.0258 2.07255 11.5027 1.875 12 1.875ZM21.3375 8.30344C21.2692 7.96741 21.0857 7.66578 20.8186 7.45063C20.5516 7.23548 20.2179 7.12031 19.875 7.125H4.125C3.78339 7.12545 3.45216 7.24248 3.1861 7.45676C2.92004 7.67103 2.73509 7.9697 2.66184 8.30337C2.58859 8.63704 2.63143 8.98571 2.78327 9.29173C2.93512 9.59774 3.18686 9.84276 3.49688 9.98625H3.5025L8.55469 12.2109L6.49969 20.0203C6.34286 20.3791 6.33254 20.785 6.47093 21.1512C6.60931 21.5175 6.88543 21.8152 7.24032 21.9806C7.43858 22.0752 7.65536 22.1245 7.875 22.125C8.15755 22.125 8.43435 22.0452 8.67351 21.8947C8.91268 21.7443 9.1045 21.5294 9.22688 21.2747L12 16.5L14.7731 21.2813C14.9456 21.6321 15.2483 21.9018 15.6166 22.0328C15.985 22.1638 16.39 22.1458 16.7453 21.9826C17.1006 21.8195 17.3781 21.524 17.5188 21.1593C17.6595 20.7945 17.6522 20.3892 17.4984 20.0297L15.4434 12.2203L20.5059 9.99281C20.8202 9.85291 21.0755 9.60727 21.2275 9.29862C21.3794 8.98997 21.4183 8.63783 21.3375 8.30344ZM20.1928 9.30281L14.8491 11.6569C14.7673 11.6928 14.701 11.7567 14.6622 11.8372C14.6233 11.9176 14.6145 12.0092 14.6372 12.0956L16.7813 20.2444C16.7869 20.2659 16.7945 20.2869 16.8038 20.3072C16.8878 20.4875 16.8968 20.6937 16.8287 20.8806C16.7607 21.0675 16.6212 21.2197 16.4409 21.3038C16.2607 21.3878 16.0544 21.3967 15.8675 21.3287C15.6806 21.2607 15.5284 21.1212 15.4444 20.9409C15.4399 20.931 15.4349 20.9213 15.4294 20.9119L12.3244 15.5625C12.2914 15.5057 12.2441 15.4585 12.1872 15.4257C12.1302 15.3929 12.0657 15.3757 12 15.3757C11.9343 15.3757 11.8698 15.3929 11.8128 15.4257C11.7559 15.4585 11.7086 15.5057 11.6756 15.5625L8.57063 20.9119C8.56507 20.9213 8.56006 20.931 8.55563 20.9409C8.51492 21.0316 8.4566 21.1133 8.38405 21.1812C8.3115 21.2492 8.22617 21.302 8.13302 21.3367C8.03986 21.3714 7.94075 21.3872 7.84144 21.3832C7.74212 21.3792 7.64459 21.3555 7.5545 21.3135C7.46442 21.2715 7.38358 21.2121 7.31668 21.1385C7.24979 21.065 7.19818 20.979 7.16484 20.8853C7.13151 20.7917 7.11712 20.6923 7.12251 20.5931C7.1279 20.4939 7.15297 20.3967 7.19625 20.3072C7.20555 20.2869 7.21308 20.2659 7.21875 20.2444L9.36282 12.0938C9.38554 12.0074 9.37668 11.9157 9.33784 11.8353C9.299 11.7548 9.23272 11.6909 9.15094 11.655L3.80719 9.30281C3.65351 9.23003 3.52913 9.10718 3.45444 8.95441C3.37975 8.80164 3.35919 8.62803 3.39614 8.46204C3.43309 8.29606 3.52534 8.14755 3.65777 8.04089C3.79021 7.93423 3.95496 7.87573 4.125 7.875H19.875C20.0452 7.87531 20.2103 7.9335 20.343 8.04002C20.4758 8.14653 20.5683 8.29504 20.6055 8.46113C20.6427 8.62723 20.6223 8.80103 20.5476 8.95399C20.473 9.10694 20.3485 9.22996 20.1947 9.30281H20.1928Z" fill="white"/>
</svg>
